<?xml version="1.0" encoding="utf-8"?>
<!-- Generator: Adobe Illustrator 16.0.0, SVG Export Plug-In . SVG Version: 6.00 Build 0)  -->
<!DOCTYPE svg PUBLIC "-//W3C//DTD SVG 1.1//EN" "http://www.w3.org/Graphics/SVG/1.1/DTD/svg11.dtd">
<svg version="1.1" id="Layer_1" xmlns="http://www.w3.org/2000/svg" xmlns:xlink="http://www.w3.org/1999/xlink" x="0px" y="0px"
	 width="612px" height="792px" viewBox="0 0 612 792" enable-background="new 0 0 612 792" xml:space="preserve">
<g>
	<path fill="#93828A" d="M613,396c0,76.62-27.949,146.494-74.693,200.466C482.408,661.039,399.522,702,307,702
		c-92.523,0-175.408-40.961-231.307-105.534C28.95,542.494,1,472.62,1,396C1,226.856,137.856,90,307,90S613,226.856,613,396z"/>
	<path fill="#333333" d="M416.55,290.874c2.409-5.301,3.855-11.565,3.855-17.83c0-23.131-18.794-41.924-41.925-41.924
		c-0.481,0-0.964,0-1.445,0c-11.084-41.443-48.671-72.284-93.486-72.284c-31.323,0-59.273,14.938-77.103,38.069
		c-10.602-5.783-22.648-8.674-35.66-8.674c-42.406,0-76.621,34.214-76.621,76.62c0,6.265,0.964,13.011,2.41,18.794
		c-38.551,7.229-67.947,40.96-67.947,81.439c0,45.78,37.106,82.403,82.403,82.403H380.89c45.78,0,82.403-37.105,82.403-82.403
		C463.293,332.316,444.5,303.884,416.55,290.874z"/>
	<path fill="#61605B" d="M555.714,372.361c2.052-4.514,3.283-9.848,3.283-15.183c0-19.696-16.004-35.699-35.7-35.699
		c-0.41,0-0.821,0-1.23,0c-9.438-35.29-41.445-61.552-79.606-61.552c-26.673,0-50.473,12.721-65.656,32.417
		c-9.027-4.924-19.285-7.386-30.364-7.386c-36.11,0-65.245,29.134-65.245,65.244c0,5.334,0.821,11.079,2.052,16.003
		c-32.827,6.155-57.858,34.878-57.858,69.347c0,38.983,31.597,70.169,70.168,70.169h229.792c38.982,0,70.168-31.597,70.168-70.169
		C595.517,407.65,579.514,383.439,555.714,372.361z"/>
	<path fill="#B2B3B3" d="M359.165,441.179c1.673-3.679,2.677-8.027,2.677-12.375c0-16.055-13.045-29.098-29.099-29.098
		c-0.334,0-0.669,0-1.003,0c-7.693-28.764-33.78-50.169-64.885-50.169c-21.74,0-41.138,10.368-53.514,26.422
		c-7.358-4.014-15.719-6.021-24.75-6.021c-29.432,0-53.179,23.747-53.179,53.178c0,4.349,0.669,9.031,1.672,13.044
		c-26.757,5.018-47.159,28.43-47.159,56.523c0,31.774,25.753,57.192,57.192,57.192h187.295c31.774,0,57.192-25.753,57.192-57.192
		C391.607,469.942,378.564,450.209,359.165,441.179z"/>
</g>
</svg>
