<?xml version="1.0" encoding="utf-8"?>
<!-- Generator: Adobe Illustrator 16.0.0, SVG Export Plug-In . SVG Version: 6.00 Build 0)  -->
<!DOCTYPE svg PUBLIC "-//W3C//DTD SVG 1.1//EN" "http://www.w3.org/Graphics/SVG/1.1/DTD/svg11.dtd">
<svg version="1.1" id="Layer_1" xmlns="http://www.w3.org/2000/svg" xmlns:xlink="http://www.w3.org/1999/xlink" x="0px" y="0px"
	 width="160px" height="160px" viewBox="0 0 612 792" enable-background="new 0 0 612 792" xml:space="preserve">
<path display="none" opacity="0.03" fill="#010101" enable-background="new    " d="M572.694,370.19
	c-5.652-54.309-51.545-96.645-107.348-96.645c-10.385,0-20.417,1.499-29.925,4.234c41.506,11.999,72.718,48.247,77.316,92.407
	c23.004,8.971,39.305,30.377,39.305,56.557c0,34.084-27.633,60.77-61.711,60.77c34.12,0,59.183,0,59.952,0
	c34.087,0,61.716-26.689,61.716-60.77C612,400.567,595.694,379.161,572.694,370.19z"/>
<g display="none" opacity="0.4">
	<path display="inline" fill="#FFFFFF" d="M301.635,294.998c-4.943-47.526-45.111-84.578-93.951-84.578
		c-8.959,0-17.616,1.288-25.828,3.617c-0.119-0.034-0.237-0.08-0.356-0.115c-16.807,4.848-31.699,14.316-43.249,26.84
		c-6.944-2.706-14.478-4.158-22.383-4.158c-31.756,0-57.887,24.031-61.283,54.871c-27.752,2.261-49.568,24.989-49.568,53.323
		c0,29.825,24.177,53.516,54.009,53.516c1.479,0,105.067,0,170.527,0c29.863,0,51.798,0,52.469,0
		c29.829,0,54.009-23.676,54.009-53.508C336.031,321.895,321.757,302.85,301.635,294.998z"/>
	<path display="inline" opacity="0.03" fill="#010101" enable-background="new    " d="M301.635,294.998
		c-4.943-47.526-45.111-84.578-93.951-84.578c-9.086,0-17.865,1.314-26.185,3.709c36.324,10.503,63.639,42.229,67.656,80.872
		c20.133,7.853,34.403,26.587,34.403,49.495c0,29.832-24.184,53.189-54.009,53.189c29.863,0,51.798,0,52.469,0
		c29.829,0,54.009-23.357,54.009-53.189C336.031,321.58,321.757,302.85,301.635,294.998z"/>
	<path display="inline" fill="#F4F4F4" d="M430.427,345.516c-5.652-54.309-51.545-96.645-107.348-96.645
		c-10.243,0-20.138,1.468-29.522,4.135c-0.134-0.038-0.264-0.092-0.398-0.13c-19.202,5.533-36.225,16.363-49.418,30.664
		c-7.929-3.093-16.551-4.748-25.575-4.748c-36.29,0-66.146,27.457-70.023,62.697C116.435,344.074,91.5,369.99,91.5,402.363
		c0,34.084,27.633,61.092,61.715,61.092c1.682,0,120.051,0,194.849,0c34.12,0,59.183,0,59.952,0
		c34.087,0,61.716-26.996,61.716-61.076C469.732,376.199,453.427,354.486,430.427,345.516z"/>
	<path display="inline" opacity="0.03" fill="#010101" enable-background="new    " d="M430.427,345.516
		c-5.652-54.309-51.545-96.645-107.348-96.645c-10.385,0-20.417,1.499-29.925,4.234c41.506,11.999,72.718,48.247,77.316,92.407
		c23.004,8.971,39.305,30.377,39.305,56.557c0,34.084-27.633,60.77-61.711,60.77c34.12,0,59.183,0,59.952,0
		c34.087,0,61.716-26.689,61.716-60.77C469.732,375.893,453.427,354.486,430.427,345.516z"/>
</g>
<g display="none" opacity="0.4">
	<path display="inline" fill="#FFFFFF" d="M389.946,607.521c-4.943,46.874-45.111,83.418-93.951,83.418
		c-8.959,0-17.616-1.27-25.828-3.567c-0.119,0.033-0.237,0.079-0.356,0.113c-16.807-4.781-31.699-14.12-43.249-26.472
		c-6.944,2.668-14.478,4.101-22.383,4.101c-31.756,0-57.887-23.701-61.283-54.118c-27.752-2.229-49.568-24.646-49.568-52.592
		c0-29.416,24.177-52.781,54.009-52.781c1.479,0,105.067,0,170.527,0c29.863,0,51.798,0,52.469,0
		c29.829,0,54.009,23.351,54.009,52.773C424.343,580.994,410.068,599.778,389.946,607.521z"/>
	<path display="inline" opacity="0.03" fill="#010101" enable-background="new    " d="M389.946,607.521
		c-4.943,46.874-45.111,83.418-93.951,83.418c-9.086,0-17.865-1.296-26.185-3.658c36.324-10.359,63.639-41.65,67.656-79.763
		c20.133-7.744,34.403-26.222,34.403-48.815c0-29.423-24.184-52.46-54.009-52.46c29.863,0,51.798,0,52.469,0
		c29.829,0,54.009,23.037,54.009,52.46C424.343,581.305,410.068,599.778,389.946,607.521z"/>
	<path display="inline" fill="#F4F4F4" d="M518.738,557.697c-5.652,53.563-51.545,95.319-107.348,95.319
		c-10.243,0-20.138-1.448-29.522-4.078c-0.134,0.037-0.264,0.09-0.398,0.128c-19.202-5.457-36.225-16.139-49.418-30.243
		c-7.929,3.05-16.551,4.683-25.575,4.683c-36.29,0-66.146-27.08-70.023-61.837c-31.707-2.55-56.642-28.11-56.642-60.039
		c0-33.616,27.633-60.254,61.715-60.254c1.682,0,120.051,0,194.849,0c34.12,0,59.183,0,59.952,0
		c34.087,0,61.716,26.626,61.716,60.238C558.044,527.435,541.738,548.85,518.738,557.697z"/>
	<path display="inline" opacity="0.03" fill="#010101" enable-background="new    " d="M518.738,557.697
		c-5.652,53.563-51.545,95.319-107.348,95.319c-10.385,0-20.417-1.479-29.925-4.177c41.506-11.834,72.718-47.584,77.316-91.139
		c23.004-8.848,39.305-29.96,39.305-55.78c0-33.616-27.633-59.937-61.711-59.937c34.12,0,59.183,0,59.952,0
		c34.087,0,61.716,26.324,61.716,59.937C558.044,527.737,541.738,548.85,518.738,557.697z"/>
</g>
<g display="none" opacity="0.4">
	<path display="inline" fill="#FFFFFF" d="M116.457,302.739c-47.688,2.99-86.357,41.604-88.36,90.402
		c-0.368,8.953,0.564,17.654,2.555,25.955c-0.039,0.117-0.09,0.234-0.129,0.352c4.154,16.992,13.004,32.26,25.043,44.312
		c-2.988,6.828-4.748,14.295-5.072,22.194c-1.302,31.729,21.637,58.824,52.312,63.481c1.121,27.821,22.936,50.551,51.246,51.713
		c29.8,1.224,54.462-21.961,55.686-51.769c0.061-1.478,4.31-104.979,6.994-170.384c1.225-29.838,2.124-51.754,2.151-52.424
		c1.224-29.804-21.44-54.935-51.247-56.158C144.742,269.474,125.127,282.956,116.457,302.739z"/>
	<path display="inline" opacity="0.03" fill="#010101" enable-background="new    " d="M116.457,302.739
		c-47.688,2.99-86.357,41.604-88.36,90.402c-0.373,9.079,0.581,17.904,2.632,26.315c11.984-35.863,44.804-61.854,83.578-64.282
		c8.672-19.793,27.976-33.284,50.864-32.344c29.808,1.224,52.153,26.345,50.93,56.145c1.226-29.838,2.125-51.754,2.152-52.425
		c1.224-29.804-21.123-54.921-50.93-56.145C144.428,269.461,125.127,282.956,116.457,302.739z"/>
	<path display="inline" fill="#F4F4F4" d="M172.215,176.127c-54.495,3.42-98.678,47.538-100.967,103.293
		c-0.42,10.234,0.641,20.181,2.92,29.667c-0.043,0.132-0.103,0.26-0.146,0.393c4.741,19.413,14.863,36.865,28.611,50.634
		c-3.415,7.795-5.423,16.342-5.793,25.359c-1.488,36.259,24.721,67.216,59.772,72.537c1.283,31.785,26.154,57.762,58.5,59.09
		c34.056,1.398,62.174-25.104,63.572-59.158c0.068-1.68,4.924-119.95,7.991-194.685c1.399-34.091,2.428-59.133,2.459-59.901
		c1.397-34.059-24.442-62.771-58.494-64.169C204.484,138.113,182.121,153.514,172.215,176.127z"/>
	<path display="inline" opacity="0.03" fill="#010101" enable-background="new    " d="M172.215,176.127
		c-54.495,3.42-98.678,47.538-100.967,103.293c-0.426,10.376,0.66,20.461,3.003,30.073c13.691-40.979,51.188-70.678,95.5-73.461
		c9.906-22.617,31.963-38.026,58.121-36.952c34.055,1.398,59.585,30.102,58.187,64.151c1.399-34.091,2.428-59.133,2.459-59.901
		c1.398-34.059-24.136-62.759-58.187-64.156C204.178,138.1,182.121,153.514,172.215,176.127z"/>
</g>
<g display="none" opacity="0.4">
	<path display="inline" fill="#FFFFFF" d="M370.311,353.349c-4.943-47.526-45.111-84.578-93.951-84.578
		c-8.959,0-17.616,1.288-25.828,3.617c-0.119-0.034-0.237-0.08-0.356-0.115c-16.807,4.848-31.699,14.316-43.249,26.84
		c-6.944-2.706-14.478-4.158-22.383-4.158c-31.756,0-57.887,24.031-61.283,54.871c-27.752,2.261-49.568,24.989-49.568,53.323
		c0,29.825,24.177,53.516,54.009,53.516c1.479,0,105.067,0,170.527,0c29.863,0,51.798,0,52.469,0
		c29.829,0,54.009-23.676,54.009-53.508C404.707,380.245,390.433,361.2,370.311,353.349z"/>
	<path display="inline" opacity="0.03" fill="#010101" enable-background="new    " d="M370.311,353.349
		c-4.943-47.526-45.111-84.578-93.951-84.578c-9.086,0-17.865,1.314-26.185,3.709c36.325,10.503,63.639,42.229,67.656,80.872
		c20.133,7.853,34.403,26.587,34.403,49.495c0,29.832-24.184,53.189-54.009,53.189c29.863,0,51.798,0,52.469,0
		c29.829,0,54.009-23.357,54.009-53.189C404.707,379.931,390.433,361.2,370.311,353.349z"/>
	<path display="inline" fill="#F4F4F4" d="M499.103,403.866c-5.652-54.309-51.545-96.645-107.348-96.645
		c-10.243,0-20.138,1.468-29.522,4.135c-0.134-0.038-0.264-0.092-0.398-0.13c-19.202,5.533-36.225,16.363-49.418,30.664
		c-7.929-3.093-16.551-4.748-25.575-4.748c-36.29,0-66.146,27.457-70.023,62.697c-31.707,2.586-56.642,28.502-56.642,60.875
		c0,34.084,27.633,61.092,61.715,61.092c1.682,0,120.051,0,194.849,0c34.12,0,59.183,0,59.952,0
		c34.087,0,61.716-26.996,61.716-61.076C538.408,434.55,522.103,412.837,499.103,403.866z"/>
	<path display="inline" opacity="0.03" fill="#010101" enable-background="new    " d="M499.103,403.866
		c-5.652-54.309-51.545-96.645-107.348-96.645c-10.385,0-20.417,1.499-29.925,4.234c41.506,11.999,72.718,48.247,77.316,92.407
		c23.004,8.971,39.305,30.377,39.305,56.557c0,34.084-27.633,60.77-61.711,60.77c34.12,0,59.183,0,59.952,0
		c34.087,0,61.716-26.689,61.716-60.77C538.408,434.243,522.103,412.837,499.103,403.866z"/>
</g>
<g display="none" opacity="0.4">
	<path display="inline" fill="#FFFFFF" d="M369.012,320.881c-4.943-47.526-45.111-84.578-93.951-84.578
		c-8.959,0-17.616,1.288-25.828,3.617c-0.119-0.034-0.237-0.08-0.356-0.115c-16.807,4.848-31.699,14.316-43.249,26.84
		c-6.944-2.706-14.478-4.158-22.383-4.158c-31.756,0-57.887,24.031-61.283,54.871c-27.752,2.261-49.568,24.989-49.568,53.323
		c0,29.826,24.177,53.515,54.009,53.515c1.479,0,105.067,0,170.527,0c29.863,0,51.798,0,52.469,0
		c29.829,0,54.009-23.676,54.009-53.507C403.408,347.778,389.134,328.733,369.012,320.881z"/>
	<path display="inline" opacity="0.03" fill="#010101" enable-background="new    " d="M369.012,320.881
		c-4.943-47.526-45.111-84.578-93.951-84.578c-9.086,0-17.865,1.314-26.185,3.709c36.325,10.503,63.639,42.229,67.656,80.872
		c20.133,7.853,34.403,26.587,34.403,49.495c0,29.832-24.184,53.189-54.009,53.189c29.863,0,51.798,0,52.469,0
		c29.829,0,54.009-23.357,54.009-53.189C403.408,347.463,389.134,328.733,369.012,320.881z"/>
	<path display="inline" fill="#F4F4F4" d="M497.804,371.399c-5.652-54.309-51.545-96.645-107.348-96.645
		c-10.243,0-20.138,1.468-29.522,4.135c-0.134-0.038-0.264-0.092-0.398-0.13c-19.202,5.533-36.225,16.363-49.418,30.664
		c-7.929-3.093-16.551-4.748-25.575-4.748c-36.29,0-66.146,27.457-70.023,62.697c-31.707,2.586-56.642,28.502-56.642,60.875
		c0,34.084,27.633,61.092,61.715,61.092c1.682,0,120.051,0,194.849,0c34.12,0,59.183,0,59.952,0
		c34.087,0,61.716-26.996,61.716-61.076C537.109,402.082,520.804,380.37,497.804,371.399z"/>
	<path display="inline" opacity="0.03" fill="#010101" enable-background="new    " d="M497.804,371.399
		c-5.652-54.309-51.545-96.645-107.348-96.645c-10.385,0-20.417,1.499-29.925,4.234c41.506,11.999,72.718,48.247,77.316,92.407
		c23.004,8.971,39.305,30.376,39.305,56.556c0,34.084-27.633,60.77-61.711,60.77c34.12,0,59.183,0,59.952,0
		c34.087,0,61.716-26.689,61.716-60.77C537.109,401.775,520.804,380.37,497.804,371.399z"/>
</g>
<g display="none" opacity="0.4">
	<path display="inline" fill="#FFFFFF" d="M396.284,192.31c-4.943-47.526-45.111-84.578-93.951-84.578
		c-8.959,0-17.616,1.288-25.828,3.617c-0.119-0.034-0.237-0.08-0.356-0.115c-16.807,4.848-31.699,14.316-43.249,26.84
		c-6.944-2.706-14.478-4.158-22.383-4.158c-31.756,0-57.887,24.031-61.283,54.871c-27.752,2.261-49.568,24.989-49.568,53.323
		c0,29.825,24.177,53.516,54.009,53.516c1.479,0,105.067,0,170.527,0c29.863,0,51.798,0,52.469,0
		c29.829,0,54.009-23.676,54.009-53.508C430.681,219.206,416.406,200.161,396.284,192.31z"/>
	<path display="inline" opacity="0.03" fill="#010101" enable-background="new    " d="M396.284,192.31
		c-4.943-47.526-45.111-84.578-93.951-84.578c-9.086,0-17.865,1.314-26.185,3.709c36.325,10.503,63.639,42.229,67.656,80.872
		c20.133,7.853,34.403,26.587,34.403,49.495c0,29.832-24.184,53.189-54.009,53.189c29.863,0,51.798,0,52.469,0
		c29.829,0,54.009-23.357,54.009-53.189C430.681,218.892,416.406,200.161,396.284,192.31z"/>
	<path display="inline" fill="#F4F4F4" d="M525.076,242.827c-5.652-54.309-51.545-96.645-107.348-96.645
		c-10.243,0-20.138,1.468-29.522,4.135c-0.134-0.038-0.264-0.092-0.398-0.13c-19.202,5.533-36.225,16.363-49.418,30.664
		c-7.929-3.093-16.551-4.748-25.575-4.748c-36.29,0-66.146,27.457-70.023,62.697c-31.707,2.586-56.642,28.502-56.642,60.875
		c0,34.084,27.633,61.092,61.715,61.092c1.682,0,120.051,0,194.849,0c34.12,0,59.183,0,59.952,0
		c34.087,0,61.716-26.996,61.716-61.076C564.382,273.511,548.076,251.798,525.076,242.827z"/>
	<path display="inline" opacity="0.03" fill="#010101" enable-background="new    " d="M525.076,242.827
		c-5.652-54.309-51.545-96.645-107.348-96.645c-10.385,0-20.417,1.499-29.925,4.234c41.506,11.999,72.718,48.247,77.316,92.407
		c23.004,8.971,39.305,30.377,39.305,56.557c0,34.084-27.633,60.77-61.711,60.77c34.12,0,59.183,0,59.952,0
		c34.087,0,61.716-26.689,61.716-60.77C564.382,273.204,548.076,251.798,525.076,242.827z"/>
</g>
<g display="none" opacity="0.4">
	<path display="inline" fill="#FFFFFF" d="M512.751,460.099c47.432-5.779,83.771-46.593,82.912-95.424
		c-0.158-8.958-1.598-17.59-4.071-25.761c0.032-0.119,0.076-0.239,0.108-0.358c-5.143-16.719-14.872-31.442-27.597-42.77
		c2.583-6.99,3.902-14.548,3.763-22.453c-0.559-31.751-25.045-57.455-55.94-60.308c-2.749-27.708-25.857-49.121-54.188-48.622
		c-29.82,0.525-53.082,25.115-52.557,54.943c0.025,1.479,1.849,105.051,3,170.5c0.525,29.858,0.912,51.79,0.924,52.461
		c0.525,29.824,24.623,53.583,54.449,53.059C486.464,494.963,505.255,480.355,512.751,460.099z"/>
	<path display="inline" opacity="0.03" fill="#010101" enable-background="new    " d="M512.751,460.099
		c47.432-5.779,83.771-46.593,82.912-95.424c-0.16-9.085-1.629-17.839-4.17-26.116c-9.862,36.504-41.104,64.373-79.669,69.068
		c-7.497,20.269-25.977,34.866-48.882,35.27c-29.827,0.524-53.606-23.244-54.132-53.065c0.525,29.859,0.912,51.79,0.924,52.46
		c0.525,29.825,24.305,53.59,54.131,53.064C486.778,494.957,505.255,480.355,512.751,460.099z"/>
	<path display="inline" fill="#F4F4F4" d="M464.508,589.76c54.2-6.607,95.723-53.238,94.741-109.032
		c-0.181-10.241-1.822-20.108-4.654-29.444c0.036-0.135,0.087-0.266,0.123-0.401c-5.87-19.102-16.998-35.931-31.528-48.87
		c2.952-7.982,4.456-16.632,4.297-25.655c-0.639-36.284-28.616-65.652-63.92-68.909c-3.143-31.656-29.494-56.131-61.861-55.562
		c-34.079,0.6-60.597,28.703-59.996,62.781c0.029,1.682,2.111,120.033,3.428,194.819c0.601,34.114,1.042,59.173,1.055,59.942
		c0.601,34.082,28.078,61.231,62.153,60.632C434.521,629.599,455.943,612.914,464.508,589.76z"/>
	<path display="inline" opacity="0.03" fill="#010101" enable-background="new    " d="M464.508,589.76
		c54.2-6.607,95.723-53.238,94.741-109.032c-0.184-10.383-1.858-20.387-4.761-29.846c-11.267,41.711-46.959,73.556-91.031,78.931
		c-8.564,23.158-29.682,39.833-55.857,40.294c-34.078,0.6-61.246-26.56-61.846-60.632c0.601,34.114,1.041,59.173,1.055,59.942
		c0.6,34.082,27.771,61.237,61.847,60.638C434.827,629.594,455.943,612.914,464.508,589.76z"/>
</g>
<g>
	<circle fill="#DED6D0" cx="307.002" cy="395.998" r="306.002"/>
	<g opacity="0.4">
		<path fill="#FFFFFF" d="M381.647,429.518c-4.943-47.526-45.111-84.578-93.951-84.578c-8.959,0-17.616,1.288-25.828,3.617
			c-0.119-0.034-0.237-0.08-0.356-0.115c-16.807,4.848-31.699,14.316-43.249,26.84c-6.944-2.706-14.478-4.158-22.383-4.158
			c-31.756,0-57.887,24.031-61.283,54.871c-27.752,2.261-49.568,24.989-49.568,53.323c0,29.825,24.177,53.516,54.009,53.516
			c1.479,0,105.067,0,170.527,0c29.863,0,51.798,0,52.469,0c29.829,0,54.009-23.676,54.009-53.508
			C416.044,456.414,401.77,437.369,381.647,429.518z"/>
		<path opacity="0.03" fill="#010101" enable-background="new    " d="M381.647,429.518c-4.943-47.526-45.111-84.578-93.951-84.578
			c-9.086,0-17.865,1.314-26.185,3.709c36.324,10.503,63.639,42.229,67.656,80.872c20.133,7.853,34.403,26.587,34.403,49.495
			c0,29.832-24.184,53.189-54.009,53.189c29.863,0,51.798,0,52.469,0c29.829,0,54.009-23.357,54.009-53.189
			C416.044,456.1,401.77,437.369,381.647,429.518z"/>
		<path fill="#F4F4F4" d="M510.439,480.035c-5.652-54.309-51.545-96.645-107.348-96.645c-10.243,0-20.138,1.468-29.522,4.135
			c-0.134-0.038-0.264-0.092-0.398-0.13c-19.202,5.533-36.225,16.363-49.418,30.664c-7.929-3.092-16.551-4.748-25.575-4.748
			c-36.29,0-66.146,27.457-70.023,62.697c-31.707,2.586-56.642,28.502-56.642,60.875c0,34.084,27.633,61.092,61.715,61.092
			c1.682,0,120.051,0,194.849,0c34.12,0,59.183,0,59.952,0c34.087,0,61.716-26.996,61.716-61.076
			C549.745,510.719,533.439,489.006,510.439,480.035z"/>
		<path opacity="0.03" fill="#010101" enable-background="new    " d="M510.439,480.035c-5.652-54.309-51.545-96.645-107.348-96.645
			c-10.385,0-20.417,1.499-29.925,4.234c41.506,11.999,72.718,48.247,77.316,92.407c23.004,8.971,39.305,30.377,39.305,56.557
			c0,34.084-27.633,60.77-61.711,60.77c34.12,0,59.183,0,59.952,0c34.087,0,61.716-26.689,61.716-60.77
			C549.745,510.412,533.439,489.006,510.439,480.035z"/>
	</g>
	<path fill="#2D666E" d="M442.604,256.036c-4.943-47.526-45.111-84.578-93.95-84.578c-8.96,0-17.616,1.288-25.828,3.617
		c-0.119-0.034-0.238-0.08-0.357-0.115c-16.807,4.848-31.698,14.316-43.248,26.84c-6.944-2.706-14.478-4.158-22.383-4.158
		c-31.756,0-57.887,24.031-61.283,54.871c-27.752,2.261-49.568,24.989-49.568,53.323c0,29.825,24.177,53.516,54.009,53.516
		c1.479,0,105.068,0,170.527,0c29.863,0,51.798,0,52.469,0c29.829,0,54.009-23.676,54.009-53.508
		C477,282.933,462.726,263.888,442.604,256.036z"/>
	<path opacity="0.03" fill="#010101" enable-background="new    " d="M443.902,319.673c-4.943-47.526-45.111-84.578-93.95-84.578
		c-9.086,0-17.865,1.314-26.186,3.709c36.324,10.503,63.64,42.229,67.656,80.872c20.133,7.853,34.403,26.587,34.403,49.495
		c0,29.832-24.184,53.189-54.009,53.189c29.863,0,51.798,0,52.469,0c29.829,0,54.009-23.357,54.009-53.189
		C478.299,346.255,464.024,327.524,443.902,319.673z"/>
	<g opacity="0.4">
		<path fill="#FFFFFF" d="M379.401,611.793c-4.943,40.044-45.111,71.263-93.951,71.263c-8.959,0-17.616-1.085-25.828-3.048
			c-0.119,0.029-0.237,0.067-0.356,0.097c-16.807-4.084-31.699-12.062-43.249-22.614c-6.944,2.279-14.478,3.503-22.383,3.503
			c-31.756,0-57.887-20.247-61.283-46.232c-27.752-1.904-49.568-21.055-49.568-44.929c0-25.13,24.177-45.09,54.009-45.09
			c1.479,0,105.067,0,170.527,0c29.863,0,51.798,0,52.469,0c29.829,0,54.009,19.948,54.009,45.084
			C413.798,589.131,399.523,605.178,379.401,611.793z"/>
		<path opacity="0.03" fill="#010101" enable-background="new    " d="M379.401,611.793c-4.943,40.044-45.111,71.263-93.951,71.263
			c-9.086,0-17.865-1.107-26.185-3.125c36.325-8.851,63.639-35.582,67.656-68.141c20.133-6.616,34.403-22.4,34.403-41.702
			c0-25.136-24.184-44.816-54.009-44.816c29.863,0,51.798,0,52.469,0c29.829,0,54.009,19.681,54.009,44.816
			C413.798,589.396,399.523,605.178,379.401,611.793z"/>
		<path fill="#F4F4F4" d="M508.193,569.229c-5.652,45.759-51.545,81.43-107.348,81.43c-10.243,0-20.138-1.236-29.522-3.483
			c-0.134,0.032-0.264,0.077-0.398,0.109c-19.202-4.662-36.225-13.787-49.418-25.837c-7.929,2.606-16.551,4.001-25.575,4.001
			c-36.29,0-66.146-23.135-70.023-52.826c-31.707-2.18-56.642-24.016-56.642-51.292c0-28.718,27.633-51.474,61.715-51.474
			c1.682,0,120.051,0,194.849,0c34.12,0,59.183,0,59.952,0c34.087,0,61.716,22.746,61.716,51.461
			C547.499,543.375,531.193,561.67,508.193,569.229z"/>
		<path opacity="0.03" fill="#010101" enable-background="new    " d="M508.193,569.229c-5.652,45.759-51.545,81.43-107.348,81.43
			c-10.385,0-20.417-1.263-29.925-3.567c41.506-10.109,72.718-40.651,77.316-77.859c23.004-7.559,39.305-25.595,39.305-47.652
			c0-28.718-27.633-51.202-61.711-51.202c34.12,0,59.183,0,59.952,0c34.087,0,61.716,22.487,61.716,51.202
			C547.499,543.634,531.193,561.67,508.193,569.229z"/>
	</g>
	<g>
		<rect x="299.312" y="323.455" fill="#423C39" width="27.272" height="251.947"/>
	</g>
	<path fill="#2D666E" d="M445.396,382.156c-4.943,41.496-45.111,73.847-93.95,73.847c-8.96,0-17.616-1.124-25.828-3.158
		c-0.119,0.029-0.238,0.07-0.357,0.1c-16.807-4.232-31.698-12.499-43.248-23.434c-6.944,2.362-14.478,3.63-22.383,3.63
		c-31.756,0-57.887-20.981-61.283-47.909c-27.752-1.974-49.568-21.818-49.568-46.557c0-26.041,24.177-46.726,54.009-46.726
		c1.479,0,105.068,0,170.527,0c29.863,0,51.798,0,52.469,0c29.829,0,54.009,20.672,54.009,46.719
		C479.792,358.673,465.518,375.301,445.396,382.156z"/>
	<g opacity="0.4">
		<path fill="#FFFFFF" d="M398.975,585.339c-4.943,40.044-45.111,71.263-93.951,71.263c-8.959,0-17.615-1.085-25.828-3.048
			c-0.118,0.029-0.236,0.067-0.355,0.097c-16.808-4.084-31.699-12.062-43.249-22.614c-6.944,2.279-14.478,3.503-22.383,3.503
			c-31.757,0-57.888-20.247-61.282-46.232c-27.752-1.904-49.568-21.055-49.568-44.929c0-25.13,24.177-45.09,54.01-45.09
			c1.479,0,105.066,0,170.526,0c29.863,0,51.798,0,52.469,0c29.829,0,54.009,19.948,54.009,45.084
			C433.371,562.677,419.097,578.724,398.975,585.339z"/>
		<path opacity="0.03" fill="#010101" enable-background="new    " d="M398.975,585.339c-4.943,40.044-45.111,71.263-93.951,71.263
			c-9.086,0-17.864-1.107-26.184-3.125c36.324-8.851,63.639-35.582,67.655-68.141c20.133-6.616,34.403-22.4,34.403-41.702
			c0-25.136-24.184-44.816-54.009-44.816c29.863,0,51.798,0,52.469,0c29.829,0,54.009,19.681,54.009,44.816
			C433.371,562.941,419.097,578.724,398.975,585.339z"/>
		<path fill="#F4F4F4" d="M527.767,542.774c-5.652,45.759-51.545,81.43-107.348,81.43c-10.243,0-20.138-1.236-29.522-3.483
			c-0.134,0.032-0.264,0.077-0.398,0.109c-19.202-4.662-36.225-13.787-49.418-25.837c-7.929,2.606-16.551,4.001-25.575,4.001
			c-36.29,0-66.146-23.135-70.023-52.826c-31.706-2.18-56.642-24.016-56.642-51.292c0-28.718,27.633-51.474,61.715-51.474
			c1.683,0,120.052,0,194.85,0c34.12,0,59.183,0,59.952,0c34.087,0,61.716,22.746,61.716,51.461
			C567.072,516.921,550.767,535.216,527.767,542.774z"/>
		<path opacity="0.03" fill="#010101" enable-background="new    " d="M527.767,542.774c-5.652,45.759-51.545,81.43-107.348,81.43
			c-10.385,0-20.417-1.263-29.925-3.567c41.506-10.109,72.718-40.651,77.316-77.859c23.004-7.559,39.305-25.595,39.305-47.652
			c0-28.718-27.633-51.202-61.711-51.202c34.12,0,59.183,0,59.952,0c34.087,0,61.716,22.487,61.716,51.202
			C567.072,517.18,550.767,535.216,527.767,542.774z"/>
	</g>
	<g opacity="0.2">
		<path fill="#FFFFFF" d="M370.401,201.78c-4.943-46.551-45.111-82.842-93.951-82.842c-8.959,0-17.616,1.261-25.828,3.543
			c-0.119-0.034-0.237-0.078-0.356-0.112c-16.807,4.748-31.699,14.022-43.249,26.289c-6.944-2.65-14.478-4.072-22.383-4.072
			c-31.756,0-57.887,23.537-61.283,53.745c-27.752,2.214-49.568,24.476-49.568,52.229c0,29.213,24.177,52.416,54.009,52.416
			c1.479,0,105.067,0,170.527,0c29.863,0,51.798,0,52.469,0c29.829,0,54.009-23.189,54.009-52.409
			C404.798,228.125,390.523,209.47,370.401,201.78z"/>
		<path opacity="0.03" fill="#010101" enable-background="new    " d="M370.401,201.78c-4.943-46.551-45.111-82.842-93.951-82.842
			c-9.086,0-17.865,1.288-26.185,3.633c36.325,10.289,63.639,41.363,67.656,79.212c20.133,7.691,34.403,26.04,34.403,48.478
			c0,29.22-24.184,52.098-54.009,52.098c29.863,0,51.798,0,52.469,0c29.829,0,54.009-22.878,54.009-52.098
			C404.798,227.817,390.523,209.47,370.401,201.78z"/>
		<path fill="#F4F4F4" d="M499.193,251.26c-5.652-53.193-51.545-94.661-107.348-94.661c-10.243,0-20.138,1.437-29.522,4.05
			c-0.134-0.037-0.264-0.09-0.398-0.127c-19.202,5.419-36.225,16.026-49.418,30.035c-7.929-3.03-16.551-4.651-25.575-4.651
			c-36.29,0-66.146,26.894-70.023,61.41c-31.707,2.534-56.642,27.917-56.642,59.626c0,33.384,27.633,59.837,61.715,59.837
			c1.682,0,120.051,0,194.849,0c34.12,0,59.183,0,59.952,0c34.087,0,61.716-26.442,61.716-59.823
			C538.499,281.314,522.193,260.047,499.193,251.26z"/>
		<path opacity="0.03" fill="#010101" enable-background="new    " d="M499.193,251.26c-5.652-53.193-51.545-94.661-107.348-94.661
			c-10.385,0-20.417,1.468-29.925,4.147c41.506,11.752,72.718,47.257,77.316,90.51c23.004,8.787,39.305,29.753,39.305,55.395
			c0,33.384-27.633,59.521-61.711,59.521c34.12,0,59.183,0,59.952,0c34.087,0,61.716-26.141,61.716-59.521
			C538.499,281.014,522.193,260.047,499.193,251.26z"/>
	</g>
	<g opacity="0.2">
		<path fill="#FFFFFF" d="M322.35,332.702c-4.943-46.551-45.111-82.842-93.951-82.842c-8.959,0-17.616,1.261-25.828,3.543
			c-0.119-0.034-0.237-0.078-0.356-0.112c-16.807,4.748-31.699,14.022-43.249,26.289c-6.944-2.65-14.478-4.072-22.383-4.072
			c-31.756,0-57.887,23.537-61.283,53.745c-27.752,2.214-49.568,24.476-49.568,52.229c0,29.213,24.177,52.416,54.009,52.416
			c1.479,0,105.067,0,170.527,0c29.863,0,51.798,0,52.469,0c29.829,0,54.009-23.189,54.009-52.408
			C356.746,359.046,342.472,340.392,322.35,332.702z"/>
		<path opacity="0.03" fill="#010101" enable-background="new    " d="M322.35,332.702c-4.943-46.551-45.111-82.842-93.951-82.842
			c-9.086,0-17.865,1.288-26.185,3.633c36.325,10.289,63.639,41.363,67.656,79.212c20.133,7.691,34.403,26.04,34.403,48.479
			c0,29.219-24.184,52.098-54.009,52.098c29.863,0,51.798,0,52.469,0c29.829,0,54.009-22.879,54.009-52.098
			C356.746,358.739,342.472,340.392,322.35,332.702z"/>
		<path fill="#F4F4F4" d="M451.142,382.182c-5.652-53.193-51.545-94.66-107.348-94.66c-10.243,0-20.138,1.437-29.522,4.05
			c-0.134-0.037-0.264-0.09-0.398-0.127c-19.202,5.419-36.225,16.026-49.418,30.035c-7.929-3.03-16.551-4.651-25.575-4.651
			c-36.29,0-66.146,26.894-70.023,61.41c-31.707,2.534-56.642,27.917-56.642,59.626c0,33.384,27.633,59.837,61.715,59.837
			c1.682,0,120.051,0,194.849,0c34.12,0,59.183,0,59.952,0c34.087,0,61.716-26.442,61.716-59.823
			C490.447,412.236,474.142,390.969,451.142,382.182z"/>
		<path opacity="0.03" fill="#010101" enable-background="new    " d="M451.142,382.182c-5.652-53.193-51.545-94.66-107.348-94.66
			c-10.385,0-20.417,1.468-29.925,4.147c41.506,11.752,72.718,47.257,77.316,90.51c23.004,8.787,39.305,29.753,39.305,55.395
			c0,33.384-27.633,59.521-61.711,59.521c34.12,0,59.183,0,59.952,0c34.087,0,61.716-26.141,61.716-59.521
			C490.447,411.936,474.142,390.969,451.142,382.182z"/>
	</g>
	<g opacity="0.2">
		<path fill="#FFFFFF" d="M443.902,346.988c-4.943-46.551-45.111-82.842-93.951-82.842c-8.959,0-17.615,1.261-25.828,3.543
			c-0.118-0.034-0.236-0.078-0.355-0.112c-16.808,4.748-31.699,14.022-43.249,26.289c-6.944-2.65-14.478-4.072-22.383-4.072
			c-31.756,0-57.887,23.537-61.283,53.745c-27.752,2.214-49.568,24.476-49.568,52.229c0,29.213,24.177,52.416,54.009,52.416
			c1.479,0,105.067,0,170.527,0c29.863,0,51.798,0,52.469,0c29.829,0,54.009-23.189,54.009-52.408
			C478.299,373.333,464.024,354.678,443.902,346.988z"/>
		<path opacity="0.03" fill="#010101" enable-background="new    " d="M443.902,346.988c-4.943-46.551-45.111-82.842-93.951-82.842
			c-9.086,0-17.864,1.288-26.184,3.633c36.324,10.289,63.639,41.363,67.655,79.212c20.133,7.691,34.403,26.04,34.403,48.479
			c0,29.219-24.184,52.098-54.009,52.098c29.863,0,51.798,0,52.469,0c29.829,0,54.009-22.879,54.009-52.098
			C478.299,373.025,464.024,354.678,443.902,346.988z"/>
		<path fill="#F4F4F4" d="M572.694,396.468c-5.652-53.193-51.545-94.66-107.348-94.66c-10.243,0-20.138,1.437-29.522,4.05
			c-0.134-0.037-0.264-0.09-0.398-0.127c-19.202,5.419-36.225,16.026-49.418,30.035c-7.929-3.03-16.551-4.651-25.575-4.651
			c-36.29,0-66.146,26.894-70.023,61.41c-31.707,2.534-56.642,27.917-56.642,59.626c0,33.384,27.633,59.837,61.715,59.837
			c1.682,0,120.051,0,194.849,0c34.12,0,59.183,0,59.952,0c34.087,0,61.716-26.442,61.716-59.823
			C612,426.522,595.694,405.255,572.694,396.468z"/>
		<path opacity="0.03" fill="#010101" enable-background="new    " d="M572.694,396.468c-5.652-53.193-51.545-94.66-107.348-94.66
			c-10.385,0-20.417,1.468-29.925,4.147c41.506,11.752,72.718,47.257,77.316,90.51c23.004,8.787,39.305,29.753,39.305,55.395
			c0,33.384-27.633,59.521-61.711,59.521c34.12,0,59.183,0,59.952,0c34.087,0,61.716-26.141,61.716-59.521
			C612,426.222,595.694,405.255,572.694,396.468z"/>
	</g>
	<g opacity="0.2">
		<path fill="#FFFFFF" d="M356.388,226.89c-4.943-46.551-45.111-82.842-93.951-82.842c-8.959,0-17.616,1.261-25.828,3.543
			c-0.119-0.034-0.237-0.078-0.356-0.112c-16.807,4.748-31.699,14.022-43.249,26.289c-6.944-2.65-14.478-4.072-22.383-4.072
			c-31.756,0-57.887,23.537-61.283,53.745c-27.752,2.214-49.568,24.476-49.568,52.229c0,29.213,24.177,52.416,54.009,52.416
			c1.479,0,105.067,0,170.527,0c29.863,0,51.798,0,52.469,0c29.829,0,54.009-23.189,54.009-52.408
			C390.784,253.234,376.51,234.58,356.388,226.89z"/>
		<path opacity="0.03" fill="#010101" enable-background="new    " d="M356.388,226.89c-4.943-46.551-45.111-82.842-93.951-82.842
			c-9.086,0-17.865,1.288-26.185,3.633c36.325,10.289,63.639,41.363,67.656,79.212c20.133,7.691,34.403,26.04,34.403,48.479
			c0,29.219-24.184,52.098-54.009,52.098c29.863,0,51.798,0,52.469,0c29.829,0,54.009-22.879,54.009-52.098
			C390.784,252.927,376.51,234.58,356.388,226.89z"/>
		<path fill="#F4F4F4" d="M485.18,276.37c-5.652-53.193-51.545-94.66-107.348-94.66c-10.243,0-20.138,1.437-29.522,4.05
			c-0.134-0.037-0.264-0.09-0.398-0.127c-19.202,5.419-36.225,16.026-49.418,30.035c-7.929-3.03-16.551-4.651-25.575-4.651
			c-36.29,0-66.146,26.894-70.023,61.41c-31.707,2.534-56.642,27.917-56.642,59.626c0,33.384,27.633,59.837,61.715,59.837
			c1.682,0,120.051,0,194.849,0c34.12,0,59.183,0,59.952,0c34.087,0,61.716-26.442,61.716-59.823
			C524.485,306.424,508.18,285.157,485.18,276.37z"/>
		<path opacity="0.03" fill="#010101" enable-background="new    " d="M485.18,276.37c-5.652-53.193-51.545-94.66-107.348-94.66
			c-10.385,0-20.417,1.468-29.925,4.147c41.506,11.752,72.718,47.257,77.316,90.51c23.004,8.787,39.305,29.753,39.305,55.395
			c0,33.384-27.633,59.521-61.711,59.521c34.12,0,59.183,0,59.952,0c34.087,0,61.716-26.141,61.716-59.521
			C524.485,306.124,508.18,285.157,485.18,276.37z"/>
	</g>
	<g opacity="0.2">
		<path fill="#FFFFFF" d="M371.7,372.963c-4.943-46.551-45.111-82.842-93.951-82.842c-8.959,0-17.616,1.261-25.828,3.543
			c-0.119-0.034-0.237-0.078-0.356-0.112c-16.807,4.748-31.699,14.022-43.249,26.289c-6.944-2.65-14.478-4.072-22.383-4.072
			c-31.756,0-57.887,23.537-61.283,53.745c-27.752,2.214-49.568,24.476-49.568,52.229c0,29.213,24.177,52.416,54.009,52.416
			c1.479,0,105.067,0,170.527,0c29.863,0,51.798,0,52.469,0c29.829,0,54.009-23.189,54.009-52.408
			C406.097,399.307,391.822,380.652,371.7,372.963z"/>
		<path opacity="0.03" fill="#010101" enable-background="new    " d="M371.7,372.963c-4.943-46.551-45.111-82.842-93.951-82.842
			c-9.086,0-17.865,1.288-26.185,3.633c36.325,10.289,63.639,41.363,67.656,79.212c20.133,7.691,34.403,26.04,34.403,48.479
			c0,29.219-24.184,52.098-54.009,52.098c29.863,0,51.798,0,52.469,0c29.829,0,54.009-22.879,54.009-52.098
			C406.097,399,391.822,380.652,371.7,372.963z"/>
		<path fill="#F4F4F4" d="M500.492,422.442c-5.652-53.193-51.545-94.66-107.348-94.66c-10.243,0-20.138,1.437-29.522,4.05
			c-0.134-0.037-0.264-0.09-0.398-0.127c-19.202,5.419-36.225,16.026-49.418,30.035c-7.929-3.03-16.551-4.651-25.575-4.651
			c-36.29,0-66.146,26.894-70.023,61.41c-31.707,2.534-56.642,27.917-56.642,59.626c0,33.384,27.633,59.837,61.715,59.837
			c1.682,0,120.051,0,194.849,0c34.12,0,59.183,0,59.952,0c34.087,0,61.716-26.442,61.716-59.823
			C539.798,452.497,523.492,431.229,500.492,422.442z"/>
		<path opacity="0.03" fill="#010101" enable-background="new    " d="M500.492,422.442c-5.652-53.193-51.545-94.66-107.348-94.66
			c-10.385,0-20.417,1.468-29.925,4.147c41.506,11.752,72.718,47.257,77.316,90.51c23.004,8.787,39.305,29.753,39.305,55.395
			c0,33.384-27.633,59.521-61.711,59.521c34.12,0,59.183,0,59.952,0c34.087,0,61.716-26.141,61.716-59.521
			C539.798,452.196,523.492,431.229,500.492,422.442z"/>
	</g>
</g>
</svg>
