<?xml version="1.0" encoding="utf-8"?>
<!-- Generator: Adobe Illustrator 16.0.0, SVG Export Plug-In . SVG Version: 6.00 Build 0)  -->
<!DOCTYPE svg PUBLIC "-//W3C//DTD SVG 1.1//EN" "http://www.w3.org/Graphics/SVG/1.1/DTD/svg11.dtd">
<svg version="1.1" id="Capa_1" xmlns="http://www.w3.org/2000/svg" xmlns:xlink="http://www.w3.org/1999/xlink" x="0px" y="0px"
	 width="160px" height="160px" viewBox="0 0 612 792" enable-background="new 0 0 612 792" xml:space="preserve">
<circle fill="#FBFFF1" cx="306.002" cy="395.998" r="306.002"/>
<path fill="#605F5B" d="M370.258,293.153c-4.943-47.525-45.111-84.578-93.951-84.578c-8.959,0-17.616,1.288-25.828,3.617
	c-0.119-0.034-0.237-0.08-0.356-0.115c-16.807,4.848-31.699,14.316-43.249,26.84c-6.944-2.706-14.478-4.158-22.383-4.158
	c-31.756,0-57.887,24.031-61.283,54.871c-27.752,2.261-49.568,24.989-49.568,53.323c0,29.825,24.177,53.515,54.009,53.515
	c1.479,0,105.067,0,170.527,0c29.863,0,51.798,0,52.469,0c29.829,0,54.009-23.675,54.009-53.507
	C404.654,320.05,390.38,301.005,370.258,293.153z"/>
<path opacity="0.03" fill="#605F5B" enable-background="new    " d="M370.258,293.153c-4.943-47.525-45.111-84.578-93.951-84.578
	c-9.086,0-17.865,1.314-26.185,3.709c36.324,10.503,63.639,42.229,67.656,80.872c20.133,7.852,34.403,26.587,34.403,49.495
	c0,29.833-24.184,53.189-54.009,53.189c29.863,0,51.798,0,52.469,0c29.829,0,54.009-23.356,54.009-53.189
	C404.654,319.736,390.38,301.005,370.258,293.153z"/>
<path fill="#6D6D6B" d="M499.05,343.671c-5.652-54.308-51.545-96.645-107.348-96.645c-10.243,0-20.138,1.468-29.522,4.135
	c-0.134-0.038-0.264-0.092-0.398-0.13c-19.202,5.533-36.225,16.363-49.418,30.664c-7.929-3.093-16.551-4.748-25.575-4.748
	c-36.29,0-66.146,27.457-70.023,62.696c-31.707,2.587-56.642,28.503-56.642,60.876c0,34.083,27.633,61.091,61.715,61.091
	c1.682,0,120.051,0,194.849,0c34.12,0,59.183,0,59.952,0c34.087,0,61.716-26.996,61.716-61.075
	C538.355,374.354,522.05,352.642,499.05,343.671z"/>
<path opacity="0.03" fill="#605F5B" enable-background="new    " d="M499.05,343.671c-5.652-54.308-51.545-96.645-107.348-96.645
	c-10.385,0-20.417,1.499-29.925,4.234c41.506,11.999,72.718,48.246,77.316,92.407c23.004,8.971,39.305,30.376,39.305,56.557
	c0,34.083-27.633,60.77-61.711,60.77c34.12,0,59.183,0,59.952,0c34.087,0,61.716-26.69,61.716-60.77
	C538.355,374.048,522.05,352.642,499.05,343.671z"/>
<path fill="#A1D2CE" d="M471.475,521.088c0,11.688-9.477,21.157-21.157,21.157c-11.688,0-21.16-9.473-21.16-21.157
	c0-11.688,21.16-33.036,21.16-33.036S471.475,509.4,471.475,521.088"/>
<path fill="#2C666E" d="M450.317,488.052v54.197c11.685,0,21.157-9.473,21.157-21.157
	C471.475,509.4,450.317,488.052,450.317,488.052"/>
<path fill="#A1D2CE" d="M375.389,521.088c0,11.688-9.477,21.157-21.16,21.157c-11.688,0-21.157-9.473-21.157-21.157
	c0-11.688,21.157-33.036,21.157-33.036S375.389,509.4,375.389,521.088"/>
<path fill="#2C666E" d="M354.229,488.052v54.197c11.684,0,21.16-9.473,21.16-21.157C375.389,509.4,354.229,488.052,354.229,488.052"
	/>
<path fill="#A1D2CE" d="M279.304,521.088c0,11.688-9.477,21.157-21.157,21.157c-11.688,0-21.157-9.473-21.157-21.157
	c0-11.688,21.157-33.036,21.157-33.036S279.304,509.4,279.304,521.088"/>
<path fill="#2C666E" d="M258.143,488.052v54.197c11.684,0,21.157-9.473,21.157-21.157
	C279.304,509.4,258.143,488.052,258.143,488.052"/>
<path fill="#A1D2CE" d="M423.432,585.935c0,11.688-9.477,21.156-21.157,21.156c-11.688,0-21.16-9.473-21.16-21.156
	c0-11.688,21.16-33.036,21.16-33.036S423.432,574.246,423.432,585.935"/>
<path fill="#2C666E" d="M402.274,552.898v54.196c11.685,0,21.157-9.473,21.157-21.156
	C423.432,574.246,402.274,552.898,402.274,552.898"/>
<path fill="#A1D2CE" d="M327.347,585.935c0,11.688-9.477,21.156-21.157,21.156c-11.688,0-21.157-9.473-21.157-21.156
	c0-11.688,21.157-33.036,21.157-33.036S327.347,574.246,327.347,585.935"/>
<path fill="#2C666E" d="M306.186,552.898v54.196c11.685,0,21.157-9.473,21.157-21.156
	C327.347,574.246,306.186,552.898,306.186,552.898"/>
<path fill="#A1D2CE" d="M183.219,521.088c0,11.688-9.477,21.157-21.161,21.157c-11.688,0-21.157-9.473-21.157-21.157
	c0-11.688,21.157-33.036,21.157-33.036S183.219,509.4,183.219,521.088"/>
<path fill="#2C666E" d="M162.058,488.052v54.197c11.684,0,21.161-9.473,21.161-21.157
	C183.219,509.4,162.058,488.052,162.058,488.052"/>
<path fill="#A1D2CE" d="M231.261,585.935c0,11.688-9.477,21.156-21.157,21.156c-11.688,0-21.157-9.473-21.157-21.156
	c0-11.688,21.157-33.036,21.157-33.036S231.261,574.246,231.261,585.935"/>
<path fill="#2C666E" d="M210.101,553.231v54.196c11.684,0,21.157-9.473,21.157-21.156
	C231.261,574.579,210.101,553.231,210.101,553.231"/>
</svg>
