<?xml version="1.0" encoding="utf-8"?>
<!-- Generator: Adobe Illustrator 16.0.0, SVG Export Plug-In . SVG Version: 6.00 Build 0)  -->
<!DOCTYPE svg PUBLIC "-//W3C//DTD SVG 1.1//EN" "http://www.w3.org/Graphics/SVG/1.1/DTD/svg11.dtd">
<svg version="1.1" id="Layer_1" xmlns="http://www.w3.org/2000/svg" xmlns:xlink="http://www.w3.org/1999/xlink" x="0px" y="0px"
	 width="160px" height="160px" viewBox="0 0 612 792" enable-background="new 0 0 612 792" xml:space="preserve">
<path fill="#93828A" d="M457.804,460.722l-32.692-18.876l56.503-32.621c4.577,7.911,13.108,13.245,22.904,13.245
	c14.619,0,26.469-11.85,26.469-26.469c0-14.619-11.85-26.469-26.469-26.469c-9.794,0-18.329,5.334-22.904,13.245l-56.503-32.621
	l32.692-18.875l83.549,22.387l29.651-110.666L460.34,213.349l-22.387,83.549l-32.692,18.875V250.53
	c9.139-0.009,18.024-4.731,22.923-13.214c7.31-12.66,2.973-28.849-9.688-36.158c-12.66-7.308-28.85-2.972-36.157,9.689
	c-4.898,8.483-4.545,18.541,0.019,26.459l-56.502,32.62v-37.75l61.16-61.161L306,90l-81.012,81.012l61.161,61.161v37.75
	l-56.502-32.62c4.562-7.918,4.915-17.977,0.017-26.459c-7.308-12.66-23.496-16.998-36.157-9.689
	c-12.659,7.31-16.997,23.498-9.689,36.158c4.898,8.483,13.786,13.206,22.924,13.214v65.243l-32.693-18.875l-22.386-83.546
	L40.996,243l29.653,110.666l83.546-22.387l32.692,18.875l-56.502,32.621c-4.577-7.911-13.11-13.245-22.905-13.245
	c-14.619,0-26.469,11.851-26.469,26.469c0,14.618,11.85,26.469,26.469,26.469c9.794,0,18.329-5.335,22.905-13.245l56.502,32.621
	l-32.692,18.875l-83.546-22.387L40.997,549l110.666,29.653l22.386-83.546l32.693-18.876v65.243
	c-9.138,0.01-18.025,4.73-22.924,13.214c-7.308,12.659-2.971,28.848,9.689,36.158c12.66,7.309,28.849,2.972,36.157-9.689
	c4.898-8.482,4.545-18.54-0.017-26.459l56.502-32.62v37.749l-61.162,61.16L306,701.999l81.013-81.013l-61.161-61.16v-37.751
	l56.503,32.62c-4.562,7.918-4.917,17.977-0.02,26.46c7.309,12.659,23.496,16.997,36.157,9.689
	c12.659-7.31,16.998-23.498,9.688-36.158c-4.898-8.483-13.784-13.206-22.922-13.215v-65.242l32.691,18.875l22.387,83.549
	L571.002,549L541.35,438.334L457.804,460.722z M479.312,496.062l33.965-9.101l9.101,33.965l-33.964,9.1L479.312,496.062z
	 M425.11,395.999l-39.703,22.922l-39.704-22.922l39.704-22.923L425.11,395.999z M488.413,261.973l33.964,9.1l-9.101,33.965
	l-33.965-9.1L488.413,261.973z M365.556,292.847v45.848l-39.704,22.922V315.77L365.556,292.847z M306,146.15l24.863,24.862
	L306,195.876l-24.864-24.864L306,146.15z M246.445,292.847l39.704,22.923v45.847l-39.704-22.923V292.847z M89.624,271.074
	l33.963-9.1l9.1,33.965l-33.964,9.1L89.624,271.074z M186.89,395.999l39.703-22.924l39.704,22.924l-39.704,22.924L186.89,395.999z
	 M123.587,530.025l-33.963-9.1l9.1-33.965l33.964,9.1L123.587,530.025z M246.445,499.153v-45.847l39.704-22.924v45.848
	L246.445,499.153z M306,645.851l-24.864-24.864L306,596.123l24.863,24.863L306,645.851z M365.556,499.153l-39.704-22.923v-45.848
	l39.704,22.923V499.153z"/>
<path fill="#896978" d="M457.804,460.722l-32.692-18.876l56.503-32.621c4.577,7.911,13.108,13.245,22.904,13.245
	c14.619,0,26.469-11.85,26.469-26.469c0-14.619-11.85-26.469-26.469-26.469c-9.794,0-18.329,5.334-22.904,13.245l-56.503-32.621
	l32.692-18.875l83.549,22.387l29.651-110.666L460.34,213.349l-22.387,83.549l-32.692,18.875V250.53
	c9.139-0.009,18.024-4.731,22.923-13.214c7.31-12.66,2.973-28.849-9.688-36.158c-12.66-7.308-28.85-2.972-36.157,9.689
	c-4.898,8.483-4.545,18.541,0.019,26.459l-56.502,32.62v-37.75l61.16-61.161L306,90v56.15l24.863,24.862L306,195.876v400.248
	l24.863,24.862L306,645.851V702l81.013-81.013l-61.161-61.161v-37.751l56.503,32.62c-4.562,7.918-4.917,17.977-0.02,26.46
	c7.309,12.659,23.496,16.997,36.157,9.689c12.659-7.31,16.998-23.498,9.688-36.158c-4.898-8.483-13.784-13.206-22.922-13.215
	v-65.242l32.691,18.875l22.387,83.549L571.002,549L541.35,438.334L457.804,460.722z M488.413,261.973l33.964,9.1l-9.101,33.965
	l-33.965-9.1L488.413,261.973z M325.852,315.77l39.704-22.923v45.848l-39.704,22.922V315.77L325.852,315.77z M365.556,499.153
	l-39.704-22.923v-45.848l39.704,22.923V499.153z M385.407,418.923L345.703,396l39.704-22.922L425.11,396L385.407,418.923z
	 M488.413,530.025l-9.102-33.965l33.965-9.1l9.101,33.965L488.413,530.025z"/>
</svg>
