<?xml version="1.0" encoding="utf-8"?>
<!-- Generator: Adobe Illustrator 16.0.0, SVG Export Plug-In . SVG Version: 6.00 Build 0)  -->
<!DOCTYPE svg PUBLIC "-//W3C//DTD SVG 1.1//EN" "http://www.w3.org/Graphics/SVG/1.1/DTD/svg11.dtd">
<svg version="1.1" id="Layer_1" xmlns="http://www.w3.org/2000/svg" xmlns:xlink="http://www.w3.org/1999/xlink" x="0px" y="0px"
	 width="160px" height="160px" viewBox="0 0 612 792" enable-background="new 0 0 612 792" xml:space="preserve">
<g>
	<polygon fill="#F4C525" points="612,407.408 547.905,462.276 581.909,539.503 500.298,561.01 497.426,645.363 414.555,629.457
		375.367,704.194 307.647,653.787 239.932,704.194 200.743,629.457 117.871,645.363 114.998,561.01 33.387,539.503 67.393,462.276
		3.296,407.408 67.393,352.541 33.387,275.313 114.998,253.803 117.871,169.457 200.743,185.359 239.932,110.621 307.647,161.027
		375.362,110.621 414.555,185.359 497.426,169.457 500.298,253.803 581.909,275.313 547.905,352.541 	"/>
	<path fill="#F7A91B" d="M307.647,204.505c112.061,0,202.904,90.843,202.904,202.903c0,112.057-90.844,202.903-202.904,202.903
		c-112.058,0-202.901-90.847-202.901-202.903C104.746,295.348,195.589,204.505,307.647,204.505z"/>
</g>
</svg>
