<?xml version="1.0" encoding="utf-8"?>
<!-- Generator: Adobe Illustrator 16.0.0, SVG Export Plug-In . SVG Version: 6.00 Build 0)  -->
<!DOCTYPE svg PUBLIC "-//W3C//DTD SVG 1.1//EN" "http://www.w3.org/Graphics/SVG/1.1/DTD/svg11.dtd">
<svg version="1.1" id="Layer_1" xmlns="http://www.w3.org/2000/svg" xmlns:xlink="http://www.w3.org/1999/xlink" x="0px" y="0px"
	 width="612px" height="792px" viewBox="0 0 612 792" enable-background="new 0 0 612 792" xml:space="preserve">
<path fill="#2C666E" d="M612,396c0,76.62-27.949,146.494-74.693,200.466C481.408,661.039,398.522,702,306,702
	c-92.523,0-175.408-40.961-231.307-105.534C27.95,542.494,0,472.62,0,396C0,226.856,136.856,90,306,90S612,226.856,612,396z"/>
<path fill="#FFFFFF" d="M476.589,328.536c2.409-5.301,3.855-11.565,3.855-17.83c0-23.131-18.794-41.924-41.925-41.924
	c-0.481,0-0.964,0-1.445,0c-11.084-41.443-48.671-72.284-93.486-72.284c-31.323,0-59.273,14.938-77.103,38.069
	c-10.602-5.783-22.648-8.674-35.66-8.674c-42.406,0-76.621,34.214-76.621,76.62c0,6.265,0.964,13.011,2.41,18.794
	c-38.551,7.229-67.947,40.96-67.947,81.439c0,45.78,37.106,82.403,82.403,82.403h269.858c45.78,0,82.403-37.105,82.403-82.403
	C523.332,369.978,504.539,341.546,476.589,328.536z"/>
<polygon fill="#FFD05B" points="383.584,421.54 321.421,421.54 340.214,304.441 228.416,443.226 290.58,443.226 271.786,560.324 "/>
</svg>
