<?xml version="1.0" encoding="utf-8"?>
<!-- Generator: Adobe Illustrator 16.0.0, SVG Export Plug-In . SVG Version: 6.00 Build 0)  -->
<!DOCTYPE svg PUBLIC "-//W3C//DTD SVG 1.1//EN" "http://www.w3.org/Graphics/SVG/1.1/DTD/svg11.dtd">
<svg version="1.1" id="Layer_1" xmlns="http://www.w3.org/2000/svg" xmlns:xlink="http://www.w3.org/1999/xlink" x="0px" y="0px"
	 width="160px" height="160px" viewBox="0 0 612 792" enable-background="new 0 0 612 792" xml:space="preserve">
<g>
	<polygon fill="#DD4545" points="287.012,90.725 543.804,347.516 611.29,376.999 380.632,607.656 325.001,701.262 111.666,487.926
		0.725,414.987 182.031,233.682 	"/>
	<path fill="#F75959" d="M612,90l-0.71,286.999H372.328c-3.098-10.916-8.954-21.205-17.537-29.788l94.354-94.354L612,90z"/>
	<path fill="#F75959" d="M0,90l287.012,0.725v238.933l0.014,0.014c-10.916,3.098-21.205,8.954-29.803,17.552l-94.366-94.368L0,90z"
		/>
	<path fill="#FFDE55" d="M354.791,347.211c8.585,8.584,14.439,18.873,17.537,29.788c6.666,23.294,0.81,49.415-17.553,67.776
		c-8.585,8.585-18.872,14.44-29.788,17.538c-23.308,6.65-49.415,0.81-67.763-17.538c-8.585-8.584-14.439-18.872-17.537-29.788
		c-6.666-23.294-0.81-49.415,17.537-67.763c8.599-8.598,18.888-14.453,29.804-17.552
		C310.32,323.007,336.442,328.862,354.791,347.211z"/>
	<path fill="#F75959" d="M449.144,539.144L612,702l-286.999-0.738V462.328l-0.014-0.014c10.916-3.098,21.205-8.954,29.788-17.537
		L449.144,539.144z"/>
	<path fill="#F75959" d="M0.725,414.987h238.962c3.098,10.916,8.954,21.205,17.537,29.788L162.87,539.13L0.014,701.986
		L0.725,414.987z"/>
</g>
</svg>
